<?xml version="1.0" encoding="utf-8"?>
<!-- Generator: Adobe Illustrator 16.0.0, SVG Export Plug-In . SVG Version: 6.00 Build 0)  -->
<!DOCTYPE svg PUBLIC "-//W3C//DTD SVG 1.1//EN" "http://www.w3.org/Graphics/SVG/1.1/DTD/svg11.dtd">
<svg version="1.1" id="Layer_1" xmlns="http://www.w3.org/2000/svg" xmlns:xlink="http://www.w3.org/1999/xlink" x="0px" y="0px"
	 width="370.048px" height="370.047px" viewBox="0 0 370.048 370.047" enable-background="new 0 0 370.048 370.047"
	 xml:space="preserve">
<circle fill="#17618E" stroke="#FFFFFF" stroke-miterlimit="10" cx="185.024" cy="185.024" r="184.524"/>
<circle display="none" fill="none" stroke="#FFFFFF" stroke-width="18.1677" stroke-miterlimit="10" cx="185.024" cy="185.024" r="92.546"/>
<path fill="#FFFFFF" d="M139.335,98.592c24.114,0,28.658,7.869,43.429,9.104c19.795,1.653,35.58-12.051,56.282-8.175
	c53.995,10.106,32.796,62.415,17.993,89.234c-12.147,22.003-6.049,46.189-15.63,69.105c-3.544,8.493-14.214,32.71-29.733,15.646
	c-3.975-13.611-4.005-27.711-7.881-41.414c-3.082-10.884-16.167-14.374-30.634-9.944c-5.769,1.766-10.14,24.324-10.14,28.945
	c0,8.832-1.629,29.851-19.455,26.271c-16.559-3.32-17.13-26.35-17.863-36.607c-0.836-11.701-0.676-23.781-3.104-35.374
	c-1.707-8.158-11.683-17.664-15.733-25.474C93.255,153.661,83.059,98.592,139.335,98.592z"/>
<polyline display="none" fill="none" stroke="#FFFFFF" stroke-width="16.757" stroke-linecap="round" stroke-miterlimit="10" points="
	236.391,185.024 185.024,185.024 185.024,133.657 "/>
<path display="none" fill-rule="evenodd" clip-rule="evenodd" fill="#FFFFFF" d="M219.983,267.016
	c-9.795-3.03-19.577-6.319-28.949-10.442c-12.44-5.473-23.589-13.115-33.831-22.178c-14.812-13.111-28.081-27.583-38.778-44.17
	c-8.332-12.919-15.741-26.476-18.329-41.976c-1.209-7.244-0.581-14.513,2.201-21.282c2.289-5.566,5.024-11.07,8.386-16.044
	c4.451-6.588,10.531-10.974,19.198-9.988c2.267,0.259,4.623-0.148,6.846,0.229c4.555,0.773,6.177,1.388,7.664,4.877
	c5.084,11.924,10.203,23.834,15.483,35.67c2.571,5.764-1.099,9.756-3.742,13.857c-2.251,3.493-5.272,6.51-8.085,9.617
	c-3.37,3.722-3.477,5.575-0.966,9.917c6.287,10.882,13.769,20.926,23.133,29.21c7.028,6.215,15.011,11.409,22.859,16.619
	c4.646,3.083,9.85,5.329,14.812,7.933c5.212,2.731,8.344,2.012,11.949-2.48c4.575-5.701,9.216-11.35,13.896-16.966
	c2.595-3.112,4.853-3.467,8.582-1.709c12.578,5.928,25.21,11.744,37.683,17.879c1.332,0.655,2.54,3.147,2.502,4.757
	c-0.156,6.601-2.541,12.986-3.905,17.345c-2.271,7.264-5.249,11.062-16.328,16.73C248.559,271.933,226.127,268.917,219.983,267.016z
	"/>
</svg>
